<?xml version="1.0" encoding="UTF-8"?>
<!DOCTYPE svg PUBLIC "-//W3C//DTD SVG 1.1//EN" "http://www.w3.org/Graphics/SVG/1.1/DTD/svg11.dtd">
<svg xmlns="http://www.w3.org/2000/svg" version="1.1" width="96px" height="96px" style="shape-rendering:geometricPrecision; text-rendering:geometricPrecision; image-rendering:optimizeQuality; fill-rule:evenodd; clip-rule:evenodd" xmlns:xlink="http://www.w3.org/1999/xlink">
<g><path style="opacity:0.911" fill="#020503" d="M 36.5,-0.5 C 43.8333,-0.5 51.1667,-0.5 58.5,-0.5C 77.1667,5.5 89.5,17.8333 95.5,36.5C 95.5,43.8333 95.5,51.1667 95.5,58.5C 89.5,77.1667 77.1667,89.5 58.5,95.5C 51.1667,95.5 43.8333,95.5 36.5,95.5C 17.8333,89.5 5.5,77.1667 -0.5,58.5C -0.5,51.1667 -0.5,43.8333 -0.5,36.5C 5.5,17.8333 17.8333,5.5 36.5,-0.5 Z"/></g>
<g><path style="opacity:1" fill="#25bf7f" d="M 40.5,4.5 C 63.1628,3.39912 78.3294,13.3991 86,34.5C 89.1901,59.9342 78.6901,76.4342 54.5,84C 30.1472,85.3994 14.9805,74.2328 9,50.5C 6.89367,26.3432 17.3937,11.0099 40.5,4.5 Z"/></g>
<g><path style="opacity:1" fill="#030705" d="M 41.5,6.5 C 71.8162,6.98107 85.9829,22.3144 84,52.5C 77.583,74.1326 63.083,83.9659 40.5,82C 18.4444,74.412 8.61103,58.912 11,35.5C 15.5347,19.7962 25.7014,10.1295 41.5,6.5 Z"/></g>
<g><path style="opacity:1" fill="#169051" d="M 37.5,59.5 C 38.5,60.1667 39.5,60.8333 40.5,61.5C 38.856,62.3657 37.1893,62.8657 35.5,63C 34.1602,60.8511 34.8269,59.6845 37.5,59.5 Z"/></g>
<g><path style="opacity:1" fill="#235f3e" d="M 52.5,26.5 C 53.0431,26.56 53.3764,26.8933 53.5,27.5C 51.6441,32.6249 49.6441,37.6249 47.5,42.5C 45.8958,43.287 45.2291,44.6203 45.5,46.5C 50.5111,46.3341 55.5111,46.5007 60.5,47C 56.5414,53.0827 52.7081,59.2494 49,65.5C 49.365,62.2062 49.865,58.8728 50.5,55.5C 51.9313,54.2196 52.5979,52.5529 52.5,50.5C 46.1579,50.6662 39.8246,50.4995 33.5,50C 36.0344,46.1322 39.2011,42.9655 43,40.5C 45.9293,35.6315 49.0959,30.9648 52.5,26.5 Z"/></g>
<g><path style="opacity:1" fill="#0d2b1c" d="M 45.5,31.5 C 40.509,38.1369 35.509,44.8036 30.5,51.5C 37.3214,52.1667 43.9881,52.8334 50.5,53.5C 48.5,59.1667 46.5,64.8333 44.5,70.5C 44.5,68.8333 44.5,67.1667 44.5,65.5C 41.5,65.8333 40.1667,64.5 40.5,61.5C 39.5,60.8333 38.5,60.1667 37.5,59.5C 38.5,59.5 39.5,59.5 40.5,59.5C 40.7135,57.8561 40.3802,56.3561 39.5,55C 36.1103,54.7537 32.777,54.2537 29.5,53.5C 25.9212,55.9299 24.9212,54.9299 26.5,50.5C 27.7866,48.8404 29.1199,47.1738 30.5,45.5C 29.1865,43.4816 29.8532,42.3149 32.5,42C 30.5,41.6667 28.5,41.3333 26.5,41C 27.9733,40.2904 28.6399,39.1238 28.5,37.5C 31.7107,37.988 34.544,37.3213 37,35.5C 37.414,35.9574 37.914,36.2907 38.5,36.5C 39.7401,33.2545 42.0734,31.5879 45.5,31.5 Z"/></g>
<g><path style="opacity:1" fill="#223f2f" d="M 22.5,28.5 C 24.3003,29.8948 24.6336,31.5615 23.5,33.5C 22.1575,32.0977 21.3242,32.4311 21,34.5C 19.6071,39.0947 19.2738,43.7613 20,48.5C 21.2664,56.1572 25.0997,62.6572 31.5,68C 27.8612,66.712 25.0278,64.212 23,60.5C 17.2619,49.8687 17.0952,39.202 22.5,28.5 Z"/></g>
<g><path style="opacity:1" fill="#23f893" d="M 63.5,45.5 C 63.1667,46.1667 62.8333,46.8333 62.5,47.5C 57.4557,45.7906 52.1224,44.9572 46.5,45C 47.2524,44.3292 47.5858,43.4959 47.5,42.5C 49.2027,41.3398 49.8693,42.0065 49.5,44.5C 54.3633,44.1805 59.03,44.5139 63.5,45.5 Z"/></g>
<g><path style="opacity:1" fill="#112e21" d="M 57.5,55.5 C 59.1667,52.8333 60.8333,50.1667 62.5,47.5C 62.8333,46.8333 63.1667,46.1667 63.5,45.5C 64.0431,45.44 64.3764,45.1067 64.5,44.5C 59.8804,43.5067 55.2137,43.1734 50.5,43.5C 51.1301,39.9523 52.1301,36.6189 53.5,33.5C 54.4508,33.4015 55.6175,33.4015 57,33.5C 57.3333,32.8333 57.6667,32.1667 58,31.5C 59.3561,32.3802 60.8561,32.7135 62.5,32.5C 62.5,35.1667 62.5,37.8333 62.5,40.5C 63.5,40.5 64.5,40.5 65.5,40.5C 65.3359,37.8127 65.5026,35.146 66,32.5C 66.4995,38.4908 66.6662,44.4908 66.5,50.5C 72.2076,50.5076 72.5409,50.0076 67.5,49C 69.1341,48.5065 70.8008,48.3398 72.5,48.5C 72.5,49.5 72.5,50.5 72.5,51.5C 70.5,51.5 68.5,51.5 66.5,51.5C 66.7683,54.1194 66.435,56.6194 65.5,59C 64.2341,59.3095 63.0674,59.8095 62,60.5C 61.3333,59.8333 61.3333,59.1667 62,58.5C 63.2051,57.9288 64.3717,57.2621 65.5,56.5C 62.9135,55.52 60.2469,55.1866 57.5,55.5 Z"/></g>
<g><path style="opacity:1" fill="#20392b" d="M 64.5,22.5 C 64.8966,21.475 65.5632,21.3083 66.5,22C 77.8026,32.3746 80.3026,44.5413 74,58.5C 74.1491,56.1868 74.6491,53.8535 75.5,51.5C 78.0266,39.7731 74.3599,30.1064 64.5,22.5 Z"/></g>
<g><path style="opacity:1" fill="#1fc273" d="M 56.5,22.5 C 55.3443,26.1228 54.3443,29.7894 53.5,33.5C 52.1301,36.6189 51.1301,39.9523 50.5,43.5C 55.2137,43.1734 59.8804,43.5067 64.5,44.5C 64.3764,45.1067 64.0431,45.44 63.5,45.5C 59.03,44.5139 54.3633,44.1805 49.5,44.5C 49.8693,42.0065 49.2027,41.3398 47.5,42.5C 49.6441,37.6249 51.6441,32.6249 53.5,27.5C 53.3764,26.8933 53.0431,26.56 52.5,26.5C 52.9568,24.2273 54.2901,22.894 56.5,22.5 Z"/></g>
<g><path style="opacity:1" fill="#1fdc87" d="M 56.5,22.5 C 54.2901,22.894 52.9568,24.2273 52.5,26.5C 49.0959,30.9648 45.9293,35.6315 43,40.5C 39.2011,42.9655 36.0344,46.1322 33.5,50C 39.8246,50.4995 46.1579,50.6662 52.5,50.5C 52.5979,52.5529 51.9313,54.2196 50.5,55.5C 50.5,54.8333 50.5,54.1667 50.5,53.5C 43.9881,52.8334 37.3214,52.1667 30.5,51.5C 35.509,44.8036 40.509,38.1369 45.5,31.5C 49.4166,26.0156 53.5832,20.6823 58,15.5C 58.2393,17.9595 57.7393,20.2928 56.5,22.5 Z"/></g>
<g><path style="opacity:1" fill="#1cca79" d="M 47.5,42.5 C 47.5858,43.4959 47.2524,44.3292 46.5,45C 52.1224,44.9572 57.4557,45.7906 62.5,47.5C 60.8333,50.1667 59.1667,52.8333 57.5,55.5C 53.5093,62.8114 49.0093,69.8114 44,76.5C 43.8333,76.1667 43.6667,75.8333 43.5,75.5C 44.3094,73.9291 44.6427,72.2624 44.5,70.5C 46.5,64.8333 48.5,59.1667 50.5,53.5C 50.5,54.1667 50.5,54.8333 50.5,55.5C 49.865,58.8728 49.365,62.2062 49,65.5C 52.7081,59.2494 56.5414,53.0827 60.5,47C 55.5111,46.5007 50.5111,46.3341 45.5,46.5C 45.2291,44.6203 45.8958,43.287 47.5,42.5 Z"/></g>
</svg>
