<?xml version="1.0" encoding="UTF-8"?>
<svg xmlns="http://www.w3.org/2000/svg" version="1.1" width="96px" height="96px" style="shape-rendering:geometricPrecision; text-rendering:geometricPrecision; image-rendering:optimizeQuality; fill-rule:evenodd; clip-rule:evenodd" xmlns:xlink="http://www.w3.org/1999/xlink">
<g><path style="opacity:1" fill="#410b4f" d="M 52.5,-0.5 C 54.8333,-0.5 57.1667,-0.5 59.5,-0.5C 75.5703,3.90288 86.5703,13.9029 92.5,29.5C 92.5,31.5 92.5,33.5 92.5,35.5C 90.8863,37.0746 88.8863,37.7413 86.5,37.5C 86.2761,39.7867 85.6094,41.9534 84.5,44C 82.8446,45.301 81.5113,46.801 80.5,48.5C 79.5489,49.9187 79.2155,51.5853 79.5,53.5C 78.1266,53.6567 76.7932,53.49 75.5,53C 76.5822,51.6703 77.2488,50.1703 77.5,48.5C 77.427,46.9731 78.0937,45.9731 79.5,45.5C 82.4228,45.1873 83.4228,43.854 82.5,41.5C 83.7612,38.7363 85.5946,36.403 88,34.5C 88.7796,32.6131 88.6129,30.9464 87.5,29.5C 87.732,25.5425 86.8987,21.8758 85,18.5C 79.4529,12.3604 72.9529,7.86045 65.5,5C 64.354,4.35506 63.354,3.52173 62.5,2.5C 55.7738,2.00736 49.1072,2.84069 42.5,5C 39.3827,5.96261 37.0494,7.79595 35.5,10.5C 35.0679,11.7095 34.4013,12.7095 33.5,13.5C 32.5,13.5 31.5,13.5 30.5,13.5C 29.7375,12.7321 28.7375,12.2321 27.5,12C 28.3802,10.6439 28.7135,9.14387 28.5,7.5C 30.288,7.78522 31.9547,7.45189 33.5,6.5C 35.5124,4.54527 37.8457,3.04527 40.5,2C 44.6372,1.16058 48.6372,0.327248 52.5,-0.5 Z"/></g>
<g><path style="opacity:0.86" fill="#290b3c" d="M 35.5,-0.5 C 36.5,-0.5 37.5,-0.5 38.5,-0.5C 31.5804,3.42652 25.2471,8.09318 19.5,13.5C 16.1023,17.8628 14.4356,22.6961 14.5,28C 13.2189,29.4087 12.2189,30.9087 11.5,32.5C 10.5028,32.5299 9.83611,32.0299 9.5,31C 8.74463,25.4943 10.078,19.9943 13.5,14.5C 13.3764,13.8933 13.0431,13.56 12.5,13.5C 18.7762,6.52946 26.4429,1.8628 35.5,-0.5 Z"/></g>
<g><path style="opacity:1" fill="#720c70" d="M 84.5,28.5 C 83.8333,28.5 83.1667,28.5 82.5,28.5C 82.2914,27.0783 81.7914,25.745 81,24.5C 77.1667,20 73.3333,15.5 69.5,11C 62.2021,9.71662 54.8688,9.38329 47.5,10C 46.244,10.4169 45.5774,11.2502 45.5,12.5C 42.9684,13.5957 40.6351,14.9291 38.5,16.5C 36.326,16.2503 34.6594,15.2503 33.5,13.5C 34.4013,12.7095 35.0679,11.7095 35.5,10.5C 40.0359,12.9321 43.7026,11.7654 46.5,7C 60.2265,2.84531 71.3932,6.34531 80,17.5C 80.5182,20.0226 81.8515,22.0226 84,23.5C 84.4935,25.1341 84.6602,26.8008 84.5,28.5 Z"/></g>
<g><path style="opacity:1" fill="#d933b0" d="M 82.5,28.5 C 81.8333,28.5 81.1667,28.5 80.5,28.5C 78.9582,27.6993 77.2915,27.366 75.5,27.5C 75.5,26.8333 75.5,26.1667 75.5,25.5C 75.6495,24.448 75.4828,23.448 75,22.5C 73.5736,20.2342 71.7402,18.5676 69.5,17.5C 68.3406,15.7497 66.674,14.7497 64.5,14.5C 59.2519,11.3603 53.5852,10.6936 47.5,12.5C 46.8333,12.5 46.1667,12.5 45.5,12.5C 45.5774,11.2502 46.244,10.4169 47.5,10C 54.8688,9.38329 62.2021,9.71662 69.5,11C 73.3333,15.5 77.1667,20 81,24.5C 81.7914,25.745 82.2914,27.0783 82.5,28.5 Z"/></g>
<g><path style="opacity:1" fill="#55095b" d="M 87.5,29.5 C 86.609,28.8902 85.609,28.5569 84.5,28.5C 84.6602,26.8008 84.4935,25.1341 84,23.5C 81.8515,22.0226 80.5182,20.0226 80,17.5C 71.3932,6.34531 60.2265,2.84531 46.5,7C 43.7026,11.7654 40.0359,12.9321 35.5,10.5C 37.0494,7.79595 39.3827,5.96261 42.5,5C 49.1072,2.84069 55.7738,2.00736 62.5,2.5C 63.354,3.52173 64.354,4.35506 65.5,5C 72.9529,7.86045 79.4529,12.3604 85,18.5C 86.8987,21.8758 87.732,25.5425 87.5,29.5 Z"/></g>
<g><path style="opacity:1" fill="#f0d7f1" d="M 64.5,14.5 C 60.9872,14.3075 57.6538,14.9741 54.5,16.5C 55.09,17.7989 56.09,18.6322 57.5,19C 55.1527,19.3336 52.8194,19.167 50.5,18.5C 50.5,18.1667 50.5,17.8333 50.5,17.5C 53.0972,17.2792 53.0972,16.7792 50.5,16C 51.1667,15.6667 51.8333,15.3333 52.5,15C 50.5,14.6667 48.5,14.3333 46.5,14C 47.056,13.6174 47.3893,13.1174 47.5,12.5C 53.5852,10.6936 59.2519,11.3603 64.5,14.5 Z"/></g>
<g><path style="opacity:1" fill="#c36ec0" d="M 45.5,12.5 C 46.1667,12.5 46.8333,12.5 47.5,12.5C 47.3893,13.1174 47.056,13.6174 46.5,14C 48.5,14.3333 50.5,14.6667 52.5,15C 51.8333,15.3333 51.1667,15.6667 50.5,16C 53.0972,16.7792 53.0972,17.2792 50.5,17.5C 47.4467,18.4237 44.4467,18.4237 41.5,17.5C 40.609,16.8902 39.609,16.5569 38.5,16.5C 40.6351,14.9291 42.9684,13.5957 45.5,12.5 Z"/></g>
<g><path style="opacity:1" fill="#39114c" d="M 38.5,-0.5 C 43.1667,-0.5 47.8333,-0.5 52.5,-0.5C 48.6372,0.327248 44.6372,1.16058 40.5,2C 37.8457,3.04527 35.5124,4.54527 33.5,6.5C 31.9547,7.45189 30.288,7.78522 28.5,7.5C 28.7135,9.14387 28.3802,10.6439 27.5,12C 28.7375,12.2321 29.7375,12.7321 30.5,13.5C 28.4727,13.3379 26.4727,13.5045 24.5,14C 26.1828,15.2863 27.8494,16.453 29.5,17.5C 28.596,18.209 28.2627,19.209 28.5,20.5C 29.791,20.2627 30.791,20.596 31.5,21.5C 30.5398,24.9017 30.5398,28.235 31.5,31.5C 29.1667,31.5 26.8333,31.5 24.5,31.5C 24.0618,31.5654 23.7284,31.3988 23.5,31C 24.3567,30.3109 25.0233,29.4776 25.5,28.5C 24.1487,26.981 22.6487,25.6477 21,24.5C 19.0785,21.1443 19.2451,17.9777 21.5,15C 20.5842,14.7216 19.9175,14.2216 19.5,13.5C 25.2471,8.09318 31.5804,3.42652 38.5,-0.5 Z"/></g>
<g><path style="opacity:1" fill="#d575cf" d="M 64.5,14.5 C 66.674,14.7497 68.3406,15.7497 69.5,17.5C 68.3052,17.3225 67.1385,16.9891 66,16.5C 62.6336,18.3751 59.1336,19.7084 55.5,20.5C 54.5,20.5 53.5,20.5 52.5,20.5C 51.5,20.1667 50.8333,19.5 50.5,18.5C 52.8194,19.167 55.1527,19.3336 57.5,19C 56.09,18.6322 55.09,17.7989 54.5,16.5C 57.6538,14.9741 60.9872,14.3075 64.5,14.5 Z"/></g>
<g><path style="opacity:1" fill="#903da4" d="M 41.5,17.5 C 44.4467,18.4237 47.4467,18.4237 50.5,17.5C 50.5,17.8333 50.5,18.1667 50.5,18.5C 49.7611,18.369 49.0944,18.5357 48.5,19C 47.2624,21.9073 47.2624,24.7406 48.5,27.5C 47.2223,27.2178 46.2223,26.5511 45.5,25.5C 45.6716,24.5084 45.3382,23.8417 44.5,23.5C 44.0248,21.2163 43.0248,19.2163 41.5,17.5 Z"/></g>
<g><path style="opacity:1" fill="#3c4578" d="M 29.5,17.5 C 31.6835,19.8561 34.3501,20.1895 37.5,18.5C 38.646,19.1449 39.646,19.9783 40.5,21C 37.681,20.5078 35.0144,20.6744 32.5,21.5C 32.1667,21.5 31.8333,21.5 31.5,21.5C 30.791,20.596 29.791,20.2627 28.5,20.5C 28.2627,19.209 28.596,18.209 29.5,17.5 Z"/></g>
<g><path style="opacity:1" fill="#2c1143" d="M 19.5,13.5 C 19.9175,14.2216 20.5842,14.7216 21.5,15C 19.2451,17.9777 19.0785,21.1443 21,24.5C 22.6487,25.6477 24.1487,26.981 25.5,28.5C 25.0233,29.4776 24.3567,30.3109 23.5,31C 23.7284,31.3988 24.0618,31.5654 24.5,31.5C 21.9252,32.7874 19.2585,34.1207 16.5,35.5C 15.0585,37.8329 15.7252,39.1662 18.5,39.5C 18.9077,42.5993 17.741,44.9326 15,46.5C 14.79,44.9419 14.29,43.6085 13.5,42.5C 12.8669,42.1205 12.2003,41.7871 11.5,41.5C 11.8723,38.6169 11.8723,35.6169 11.5,32.5C 12.2189,30.9087 13.2189,29.4087 14.5,28C 14.4356,22.6961 16.1023,17.8628 19.5,13.5 Z"/></g>
<g><path style="opacity:1" fill="#5182b9" d="M 50.5,18.5 C 50.8333,19.5 51.5,20.1667 52.5,20.5C 52.5,20.8333 52.5,21.1667 52.5,21.5C 51.3434,23.678 50.0101,25.678 48.5,27.5C 47.2624,24.7406 47.2624,21.9073 48.5,19C 49.0944,18.5357 49.7611,18.369 50.5,18.5 Z"/></g>
<g><path style="opacity:1" fill="#e99de1" d="M 69.5,17.5 C 71.7402,18.5676 73.5736,20.2342 75,22.5C 75.4828,23.448 75.6495,24.448 75.5,25.5C 71.6843,24.3338 69.6843,21.6672 69.5,17.5 Z"/></g>
<g><path style="opacity:1" fill="#407fac" d="M 30.5,13.5 C 31.5,13.5 32.5,13.5 33.5,13.5C 34.6594,15.2503 36.326,16.2503 38.5,16.5C 39.609,16.5569 40.609,16.8902 41.5,17.5C 43.0248,19.2163 44.0248,21.2163 44.5,23.5C 44.44,24.0431 44.1067,24.3764 43.5,24.5C 41.1624,22.1702 38.829,22.1702 36.5,24.5C 35.5,24.5 34.5,24.5 33.5,24.5C 33.7373,23.209 33.404,22.209 32.5,21.5C 35.0144,20.6744 37.681,20.5078 40.5,21C 39.646,19.9783 38.646,19.1449 37.5,18.5C 34.3501,20.1895 31.6835,19.8561 29.5,17.5C 27.8494,16.453 26.1828,15.2863 24.5,14C 26.4727,13.5045 28.4727,13.3379 30.5,13.5 Z"/></g>
<g><path style="opacity:1" fill="#c044b6" d="M 69.5,17.5 C 69.6843,21.6672 71.6843,24.3338 75.5,25.5C 75.5,26.1667 75.5,26.8333 75.5,27.5C 72.8728,28.0916 70.2062,28.4249 67.5,28.5C 68.2778,27.8444 68.9444,27.0111 69.5,26C 69.4301,25.2352 69.0967,24.7352 68.5,24.5C 66.5,24.8333 64.5,25.1667 62.5,25.5C 60.4402,24.1888 58.2735,24.1888 56,25.5C 55.5065,23.8659 55.3398,22.1992 55.5,20.5C 59.1336,19.7084 62.6336,18.3751 66,16.5C 67.1385,16.9891 68.3052,17.3225 69.5,17.5 Z"/></g>
<g><path style="opacity:1" fill="#8237b2" d="M 52.5,21.5 C 52.5,21.1667 52.5,20.8333 52.5,20.5C 53.5,20.5 54.5,20.5 55.5,20.5C 55.3398,22.1992 55.5065,23.8659 56,25.5C 58.2735,24.1888 60.4402,24.1888 62.5,25.5C 60.7697,26.0256 59.4363,27.0256 58.5,28.5C 56.5695,28.7706 55.2362,29.7706 54.5,31.5C 54.5,30.1667 54.5,28.8333 54.5,27.5C 54.7406,25.1016 54.0739,23.1016 52.5,21.5 Z"/></g>
<g><path style="opacity:1" fill="#39578b" d="M 44.5,23.5 C 45.3382,23.8417 45.6716,24.5084 45.5,25.5C 45.5,26.5 45.5,27.5 45.5,28.5C 44.1054,27.1854 43.1054,27.5188 42.5,29.5C 41.5,29.5 40.5,29.5 39.5,29.5C 38.6236,29.6309 37.9569,29.2975 37.5,28.5C 38.376,27.7492 39.376,27.2492 40.5,27C 38.563,26.8784 37.2297,26.045 36.5,24.5C 38.829,22.1702 41.1624,22.1702 43.5,24.5C 44.1067,24.3764 44.44,24.0431 44.5,23.5 Z"/></g>
<g><path style="opacity:1" fill="#210c39" d="M 12.5,13.5 C 13.0431,13.56 13.3764,13.8933 13.5,14.5C 10.078,19.9943 8.74463,25.4943 9.5,31C 9.83611,32.0299 10.5028,32.5299 11.5,32.5C 11.8723,35.6169 11.8723,38.6169 11.5,41.5C 12.2003,41.7871 12.8669,42.1205 13.5,42.5C 12.7124,45.97 10.7124,48.6367 7.5,50.5C 6.80762,49.9747 6.30762,49.3081 6,48.5C 4.75409,51.9128 2.58742,54.5795 -0.5,56.5C -0.5,49.5 -0.5,42.5 -0.5,35.5C 1.77245,26.956 6.10578,19.6227 12.5,13.5 Z"/></g>
<g><path style="opacity:1" fill="#793fa6" d="M 31.5,21.5 C 31.8333,21.5 32.1667,21.5 32.5,21.5C 33.404,22.209 33.7373,23.209 33.5,24.5C 34.5,24.5 35.5,24.5 36.5,24.5C 37.2297,26.045 38.563,26.8784 40.5,27C 39.376,27.2492 38.376,27.7492 37.5,28.5C 37.9569,29.2975 38.6236,29.6309 39.5,29.5C 39.5,30.5 39.5,31.5 39.5,32.5C 36.9455,31.612 34.2788,31.2786 31.5,31.5C 30.5398,28.235 30.5398,24.9017 31.5,21.5 Z"/></g>
<g><path style="opacity:1" fill="#4264ac" d="M 68.5,24.5 C 66.9739,26.13 64.9739,26.9633 62.5,27C 65.0278,27.9978 65.0278,28.8311 62.5,29.5C 61.1508,29.1543 59.8175,28.821 58.5,28.5C 59.4363,27.0256 60.7697,26.0256 62.5,25.5C 64.5,25.1667 66.5,24.8333 68.5,24.5 Z"/></g>
<g><path style="opacity:1" fill="#7178ba" d="M 75.5,27.5 C 77.2915,27.366 78.9582,27.6993 80.5,28.5C 79.791,29.404 78.791,29.7373 77.5,29.5C 76.1667,29.5 74.8333,29.5 73.5,29.5C 70.7938,29.5751 68.1272,29.9084 65.5,30.5C 66.1667,29.8333 66.8333,29.1667 67.5,28.5C 70.2062,28.4249 72.8728,28.0916 75.5,27.5 Z"/></g>
<g><path style="opacity:1" fill="#33186d" d="M 52.5,21.5 C 54.0739,23.1016 54.7406,25.1016 54.5,27.5C 53.7828,29.9534 52.6162,32.2867 51,34.5C 49.4053,32.0732 48.572,29.7399 48.5,27.5C 50.0101,25.678 51.3434,23.678 52.5,21.5 Z"/></g>
<g><path style="opacity:1" fill="#6e29ad" d="M 39.5,29.5 C 40.5,29.5 41.5,29.5 42.5,29.5C 45.0764,29.7218 45.9098,31.0551 45,33.5C 44.3457,32.3044 43.8457,32.3044 43.5,33.5C 44.5,34.3333 45.5,35.1667 46.5,36C 44.559,37.9028 42.2257,38.7361 39.5,38.5C 40.2625,37.7321 41.2625,37.2321 42.5,37C 41.5842,36.7216 40.9175,36.2216 40.5,35.5C 39.8902,34.609 39.5569,33.609 39.5,32.5C 39.5,31.5 39.5,30.5 39.5,29.5 Z"/></g>
<g><path style="opacity:1" fill="#9718a9" d="M 80.5,28.5 C 81.1667,28.5 81.8333,28.5 82.5,28.5C 83.1667,28.5 83.8333,28.5 84.5,28.5C 85.609,28.5569 86.609,28.8902 87.5,29.5C 85.7943,31.5358 83.461,32.5358 80.5,32.5C 79.2502,32.5774 78.4169,33.244 78,34.5C 77.6012,34.2716 77.4346,33.9382 77.5,33.5C 77.5,32.1667 77.5,30.8333 77.5,29.5C 78.791,29.7373 79.791,29.404 80.5,28.5 Z"/></g>
<g><path style="opacity:1" fill="#38a3ca" d="M 24.5,31.5 C 26.8333,31.5 29.1667,31.5 31.5,31.5C 34.2788,31.2786 36.9455,31.612 39.5,32.5C 39.5569,33.609 39.8902,34.609 40.5,35.5C 38.742,35.1231 37.0754,34.4565 35.5,33.5C 34.8165,33.8627 34.1499,34.1961 33.5,34.5C 31.7973,35.6602 31.1307,34.9935 31.5,32.5C 28.4781,32.804 25.4781,33.304 22.5,34C 24.727,34.704 25.0603,35.8706 23.5,37.5C 22.5,38.1667 21.5,38.8333 20.5,39.5C 19.6043,38.4937 18.9377,38.4937 18.5,39.5C 15.7252,39.1662 15.0585,37.8329 16.5,35.5C 19.2585,34.1207 21.9252,32.7874 24.5,31.5 Z"/></g>
<g><path style="opacity:1" fill="#680f70" d="M 87.5,29.5 C 88.6129,30.9464 88.7796,32.6131 88,34.5C 85.5946,36.403 83.7612,38.7363 82.5,41.5C 83.4228,43.854 82.4228,45.1873 79.5,45.5C 79.5,44.8333 79.5,44.1667 79.5,43.5C 79.2035,40.2761 79.8702,37.2761 81.5,34.5C 81.1373,33.8165 80.8039,33.1499 80.5,32.5C 83.461,32.5358 85.7943,31.5358 87.5,29.5 Z"/></g>
<g><path style="opacity:1" fill="#2d67a8" d="M 33.5,34.5 C 32.9717,35.8474 32.805,37.1807 33,38.5C 36.725,35.7029 37.3917,36.3696 35,40.5C 34.3292,41.2524 33.4959,41.5858 32.5,41.5C 32.6716,40.5084 32.3382,39.8417 31.5,39.5C 31.631,38.7611 31.4643,38.0944 31,37.5C 29.4345,36.9394 28.1011,37.6061 27,39.5C 25.8873,38.695 24.7206,38.0283 23.5,37.5C 25.0603,35.8706 24.727,34.704 22.5,34C 25.4781,33.304 28.4781,32.804 31.5,32.5C 31.1307,34.9935 31.7973,35.6602 33.5,34.5 Z"/></g>
<g><path style="opacity:1" fill="#292168" d="M 73.5,29.5 C 73.5,30.5 73.5,31.5 73.5,32.5C 71.857,32.4802 70.5237,33.1468 69.5,34.5C 68.8333,34.1667 68.1667,33.8333 67.5,33.5C 67.113,36.8074 65.4463,37.1407 62.5,34.5C 62.2129,35.2003 61.8795,35.8669 61.5,36.5C 59.5487,35.3586 57.5487,35.3586 55.5,36.5C 58.1661,33.4957 61.4994,31.4957 65.5,30.5C 68.1272,29.9084 70.7938,29.5751 73.5,29.5 Z"/></g>
<g><path style="opacity:1" fill="#3c1051" d="M 92.5,35.5 C 92.4809,37.0603 92.1476,38.5603 91.5,40C 91.9054,40.9454 92.572,41.6121 93.5,42C 91.1273,45.0856 90.4606,48.4189 91.5,52C 91.2849,53.9078 90.2849,55.0744 88.5,55.5C 86.8355,56.3062 85.1689,55.9729 83.5,54.5C 82.4412,52.4664 81.4412,50.4664 80.5,48.5C 81.5113,46.801 82.8446,45.301 84.5,44C 85.6094,41.9534 86.2761,39.7867 86.5,37.5C 88.8863,37.7413 90.8863,37.0746 92.5,35.5 Z"/></g>
<g><path style="opacity:1" fill="#3d2296" d="M 68.5,24.5 C 69.0967,24.7352 69.4301,25.2352 69.5,26C 68.9444,27.0111 68.2778,27.8444 67.5,28.5C 66.8333,29.1667 66.1667,29.8333 65.5,30.5C 61.4994,31.4957 58.1661,33.4957 55.5,36.5C 53.4938,37.1664 51.6605,37.1664 50,36.5C 49.6667,37.1667 49.3333,37.8333 49,38.5C 49.153,34.5525 47.9863,31.2192 45.5,28.5C 45.5,27.5 45.5,26.5 45.5,25.5C 46.2223,26.5511 47.2223,27.2178 48.5,27.5C 48.572,29.7399 49.4053,32.0732 51,34.5C 52.6162,32.2867 53.7828,29.9534 54.5,27.5C 54.5,28.8333 54.5,30.1667 54.5,31.5C 53.9717,32.7206 53.305,33.8873 52.5,35C 56.1521,34.6222 58.1521,32.4556 58.5,28.5C 59.8175,28.821 61.1508,29.1543 62.5,29.5C 65.0278,28.8311 65.0278,27.9978 62.5,27C 64.9739,26.9633 66.9739,26.13 68.5,24.5 Z"/></g>
<g><path style="opacity:1" fill="#1c125c" d="M 58.5,28.5 C 58.1521,32.4556 56.1521,34.6222 52.5,35C 53.305,33.8873 53.9717,32.7206 54.5,31.5C 55.2362,29.7706 56.5695,28.7706 58.5,28.5 Z"/></g>
<g><path style="opacity:1" fill="#2d136b" d="M 45.5,28.5 C 47.9863,31.2192 49.153,34.5525 49,38.5C 49.3333,37.8333 49.6667,37.1667 50,36.5C 51.6605,37.1664 53.4938,37.1664 55.5,36.5C 57.5487,35.3586 59.5487,35.3586 61.5,36.5C 61.4503,39.152 60.4503,40.152 58.5,39.5C 56.556,40.1892 54.556,40.6892 52.5,41C 54.9415,42.4456 57.6081,43.2789 60.5,43.5C 60.8333,44.1667 61.1667,44.8333 61.5,45.5C 59.9139,44.5868 58.4139,44.5868 57,45.5C 54.6697,42.8179 54.1697,43.1512 55.5,46.5C 55.0302,47.463 54.3635,47.463 53.5,46.5C 52.6082,43.7079 50.6082,42.3746 47.5,42.5C 47.6495,43.552 47.4828,44.552 47,45.5C 45.984,44.3659 45.3173,44.6992 45,46.5C 43.4212,45.2004 42.2545,45.5337 41.5,47.5C 40.8999,48.9002 39.8999,49.9002 38.5,50.5C 38.7394,48.5328 38.4061,46.6995 37.5,45C 39.4899,43.2494 41.8232,42.2494 44.5,42C 41.9237,40.8779 39.257,39.8779 36.5,39C 37.448,38.5172 38.448,38.3505 39.5,38.5C 42.2257,38.7361 44.559,37.9028 46.5,36C 45.5,35.1667 44.5,34.3333 43.5,33.5C 43.8457,32.3044 44.3457,32.3044 45,33.5C 45.9098,31.0551 45.0764,29.7218 42.5,29.5C 43.1054,27.5188 44.1054,27.1854 45.5,28.5 Z"/></g>
<g><path style="opacity:1" fill="#d728b6" d="M 80.5,32.5 C 80.8039,33.1499 81.1373,33.8165 81.5,34.5C 79.8702,37.2761 79.2035,40.2761 79.5,43.5C 77.5818,46.026 75.2485,48.026 72.5,49.5C 73.1383,47.54 73.1383,45.7067 72.5,44C 74.9639,42.1648 74.9639,40.1648 72.5,38C 73.1476,36.5603 73.4809,35.0603 73.5,33.5C 74.8333,33.5 76.1667,33.5 77.5,33.5C 77.4346,33.9382 77.6012,34.2716 78,34.5C 78.4169,33.244 79.2502,32.5774 80.5,32.5 Z"/></g>
<g><path style="opacity:0.969" fill="#300f49" d="M 92.5,29.5 C 93.7972,31.3713 94.7972,33.3713 95.5,35.5C 95.5,43.5 95.5,51.5 95.5,59.5C 94.7972,61.6287 93.7972,63.6287 92.5,65.5C 91.9862,63.1321 90.8195,61.1321 89,59.5C 88.51,58.2068 88.3433,56.8734 88.5,55.5C 90.2849,55.0744 91.2849,53.9078 91.5,52C 90.4606,48.4189 91.1273,45.0856 93.5,42C 92.572,41.6121 91.9054,40.9454 91.5,40C 92.1476,38.5603 92.4809,37.0603 92.5,35.5C 92.5,33.5 92.5,31.5 92.5,29.5 Z"/></g>
<g><path style="opacity:1" fill="#68177e" d="M 73.5,29.5 C 74.8333,29.5 76.1667,29.5 77.5,29.5C 77.5,30.8333 77.5,32.1667 77.5,33.5C 76.1667,33.5 74.8333,33.5 73.5,33.5C 73.4809,35.0603 73.1476,36.5603 72.5,38C 74.9639,40.1648 74.9639,42.1648 72.5,44C 73.1383,45.7067 73.1383,47.54 72.5,49.5C 72.44,50.0431 72.1067,50.3764 71.5,50.5C 68.4552,47.4534 65.1219,44.7867 61.5,42.5C 60.8933,42.6236 60.56,42.9569 60.5,43.5C 57.6081,43.2789 54.9415,42.4456 52.5,41C 54.556,40.6892 56.556,40.1892 58.5,39.5C 60.4503,40.152 61.4503,39.152 61.5,36.5C 61.8795,35.8669 62.2129,35.2003 62.5,34.5C 65.4463,37.1407 67.113,36.8074 67.5,33.5C 68.1667,33.8333 68.8333,34.1667 69.5,34.5C 70.5237,33.1468 71.857,32.4802 73.5,32.5C 73.5,31.5 73.5,30.5 73.5,29.5 Z"/></g>
<g><path style="opacity:1" fill="#3b2597" d="M 40.5,35.5 C 40.9175,36.2216 41.5842,36.7216 42.5,37C 41.2625,37.2321 40.2625,37.7321 39.5,38.5C 38.448,38.3505 37.448,38.5172 36.5,39C 39.257,39.8779 41.9237,40.8779 44.5,42C 41.8232,42.2494 39.4899,43.2494 37.5,45C 38.4061,46.6995 38.7394,48.5328 38.5,50.5C 37.1679,51.8304 36.3345,53.4971 36,55.5C 34.2835,54.4477 33.2835,55.1144 33,57.5C 32.3658,54.4453 32.5325,51.4453 33.5,48.5C 33.9528,47.5416 34.6195,46.7083 35.5,46C 33.2285,46.0768 31.5618,47.2435 30.5,49.5C 29.71,48.3915 29.21,47.0581 29,45.5C 28.1768,52.1344 27.6768,52.1344 27.5,45.5C 29.3492,44.407 31.0158,43.0737 32.5,41.5C 33.4959,41.5858 34.3292,41.2524 35,40.5C 37.3917,36.3696 36.725,35.7029 33,38.5C 32.805,37.1807 32.9717,35.8474 33.5,34.5C 34.1499,34.1961 34.8165,33.8627 35.5,33.5C 37.0754,34.4565 38.742,35.1231 40.5,35.5 Z"/></g>
<g><path style="opacity:1" fill="#2688b9" d="M 31.5,39.5 C 32.3382,39.8417 32.6716,40.5084 32.5,41.5C 30.1992,42.0604 27.8659,42.5604 25.5,43C 24.6195,43.7083 23.9528,44.5416 23.5,45.5C 20.1796,46.7613 19.8463,48.428 22.5,50.5C 21.209,50.2627 20.209,50.596 19.5,51.5C 18.4415,52.6002 17.6082,53.9336 17,55.5C 18.0726,46.9203 22.9059,41.587 31.5,39.5 Z"/></g>
<g><path style="opacity:1" fill="#2c3f9c" d="M 32.5,41.5 C 31.0158,43.0737 29.3492,44.407 27.5,45.5C 26.6909,47.2922 26.1909,49.2922 26,51.5C 25.6667,51.1667 25.3333,50.8333 25,50.5C 24.7216,51.4158 24.2216,52.0825 23.5,52.5C 23.5,50.1667 23.5,47.8333 23.5,45.5C 23.9528,44.5416 24.6195,43.7083 25.5,43C 27.8659,42.5604 30.1992,42.0604 32.5,41.5 Z"/></g>
<g><path style="opacity:1" fill="#69199a" d="M 53.5,46.5 C 52.2493,48.2199 50.7493,48.5532 49,47.5C 48.8078,49.5767 48.3078,51.5767 47.5,53.5C 46.795,50.1281 44.795,48.1281 41.5,47.5C 42.2545,45.5337 43.4212,45.2004 45,46.5C 45.3173,44.6992 45.984,44.3659 47,45.5C 47.4828,44.552 47.6495,43.552 47.5,42.5C 50.6082,42.3746 52.6082,43.7079 53.5,46.5 Z"/></g>
<g><path style="opacity:1" fill="#9f20bd" d="M 72.5,49.5 C 75.2485,48.026 77.5818,46.026 79.5,43.5C 79.5,44.1667 79.5,44.8333 79.5,45.5C 78.0937,45.9731 77.427,46.9731 77.5,48.5C 76.1147,49.6138 74.6147,50.6138 73,51.5C 72.8019,53.3817 72.3019,55.0484 71.5,56.5C 71.0679,55.2905 70.4013,54.2905 69.5,53.5C 69.6716,52.5084 69.3382,51.8417 68.5,51.5C 67.0803,48.4123 64.747,46.4123 61.5,45.5C 61.1667,44.8333 60.8333,44.1667 60.5,43.5C 60.56,42.9569 60.8933,42.6236 61.5,42.5C 65.1219,44.7867 68.4552,47.4534 71.5,50.5C 72.1067,50.3764 72.44,50.0431 72.5,49.5 Z"/></g>
<g><path style="opacity:1" fill="#1c0f44" d="M 20.5,39.5 C 21.8069,40.8016 21.8069,42.135 20.5,43.5C 15.2343,46.6738 13.5676,51.0071 15.5,56.5C 14.9515,58.6871 13.7848,59.3538 12,58.5C 11.3204,63.6768 8.48704,66.6768 3.5,67.5C 3.5,67.8333 3.5,68.1667 3.5,68.5C 1.88642,65.6077 0.553086,62.6077 -0.5,59.5C -0.5,58.5 -0.5,57.5 -0.5,56.5C 2.58742,54.5795 4.75409,51.9128 6,48.5C 6.30762,49.3081 6.80762,49.9747 7.5,50.5C 10.7124,48.6367 12.7124,45.97 13.5,42.5C 14.29,43.6085 14.79,44.9419 15,46.5C 17.741,44.9326 18.9077,42.5993 18.5,39.5C 18.9377,38.4937 19.6043,38.4937 20.5,39.5 Z"/></g>
<g><path style="opacity:1" fill="#3c237e" d="M 61.5,45.5 C 64.747,46.4123 67.0803,48.4123 68.5,51.5C 67.4168,51.4606 66.4168,51.1272 65.5,50.5C 64.7025,50.9569 64.3691,51.6236 64.5,52.5C 63.7822,54.1368 63.6155,55.8034 64,57.5C 65.0386,56.7562 65.5386,55.7562 65.5,54.5C 65.8333,54.5 66.1667,54.5 66.5,54.5C 67.3799,56.6112 67.3799,58.6112 66.5,60.5C 65.036,61.1599 63.3693,61.4932 61.5,61.5C 57.4931,60.8273 53.4931,60.1606 49.5,59.5C 49.5,60.8333 49.5,62.1667 49.5,63.5C 48.6805,60.6946 48.1805,57.6946 48,54.5C 47.501,58.8206 47.3343,63.1539 47.5,67.5C 47.1667,67.5 46.8333,67.5 46.5,67.5C 45.7106,66.085 45.0439,64.585 44.5,63C 45.5174,60.2134 45.6841,57.38 45,54.5C 44.7096,56.9204 44.2096,59.2537 43.5,61.5C 39.4454,61.8242 35.4454,61.4909 31.5,60.5C 31.3806,58.0736 31.0473,55.7402 30.5,53.5C 30.7497,51.326 31.7497,49.6594 33.5,48.5C 32.5325,51.4453 32.3658,54.4453 33,57.5C 33.2835,55.1144 34.2835,54.4477 36,55.5C 36.3345,53.4971 37.1679,51.8304 38.5,50.5C 39.8999,49.9002 40.8999,48.9002 41.5,47.5C 44.795,48.1281 46.795,50.1281 47.5,53.5C 48.3078,51.5767 48.8078,49.5767 49,47.5C 50.7493,48.5532 52.2493,48.2199 53.5,46.5C 54.3635,47.463 55.0302,47.463 55.5,46.5C 54.1697,43.1512 54.6697,42.8179 57,45.5C 58.4139,44.5868 59.9139,44.5868 61.5,45.5 Z"/></g>
<g><path style="opacity:1" fill="#3a67b2" d="M 68.5,51.5 C 69.3382,51.8417 69.6716,52.5084 69.5,53.5C 68.209,53.2627 67.209,53.596 66.5,54.5C 66.1667,54.5 65.8333,54.5 65.5,54.5C 65.6716,53.5084 65.3382,52.8417 64.5,52.5C 64.3691,51.6236 64.7025,50.9569 65.5,50.5C 66.4168,51.1272 67.4168,51.4606 68.5,51.5 Z"/></g>
<g><path style="opacity:1" fill="#2881ac" d="M 33.5,48.5 C 31.7497,49.6594 30.7497,51.326 30.5,53.5C 28.9823,56.5341 28.1489,59.8675 28,63.5C 27.5065,61.8659 27.3398,60.1992 27.5,58.5C 27.4326,57.0413 27.7659,55.7079 28.5,54.5C 28.8925,52.7162 29.5592,51.0495 30.5,49.5C 31.5618,47.2435 33.2285,46.0768 35.5,46C 34.6195,46.7083 33.9528,47.5416 33.5,48.5 Z"/></g>
<g><path style="opacity:1" fill="#54b8d8" d="M 64.5,52.5 C 65.3382,52.8417 65.6716,53.5084 65.5,54.5C 65.5386,55.7562 65.0386,56.7562 64,57.5C 63.6155,55.8034 63.7822,54.1368 64.5,52.5 Z"/></g>
<g><path style="opacity:1" fill="#2b1a67" d="M 23.5,37.5 C 24.7206,38.0283 25.8873,38.695 27,39.5C 28.1011,37.6061 29.4345,36.9394 31,37.5C 31.4643,38.0944 31.631,38.7611 31.5,39.5C 22.9059,41.587 18.0726,46.9203 17,55.5C 17.6082,53.9336 18.4415,52.6002 19.5,51.5C 19.5,52.1667 19.5,52.8333 19.5,53.5C 19.9169,54.1239 20.5836,54.4573 21.5,54.5C 22.7133,54.2528 23.38,53.5862 23.5,52.5C 24.2216,52.0825 24.7216,51.4158 25,50.5C 25.3333,50.8333 25.6667,51.1667 26,51.5C 26.1909,49.2922 26.6909,47.2922 27.5,45.5C 27.6768,52.1344 28.1768,52.1344 29,45.5C 29.21,47.0581 29.71,48.3915 30.5,49.5C 29.5592,51.0495 28.8925,52.7162 28.5,54.5C 24.3025,55.8755 19.9691,56.5421 15.5,56.5C 13.5676,51.0071 15.2343,46.6738 20.5,43.5C 21.8069,42.135 21.8069,40.8016 20.5,39.5C 21.5,38.8333 22.5,38.1667 23.5,37.5 Z"/></g>
<g><path style="opacity:1" fill="#1fc2d5" d="M 22.5,50.5 C 22.5,51.5 22.5,52.5 22.5,53.5C 21.5,53.5 20.5,53.5 19.5,53.5C 19.5,52.8333 19.5,52.1667 19.5,51.5C 20.209,50.596 21.209,50.2627 22.5,50.5 Z"/></g>
<g><path style="opacity:1" fill="#265a99" d="M 23.5,45.5 C 23.5,47.8333 23.5,50.1667 23.5,52.5C 23.38,53.5862 22.7133,54.2528 21.5,54.5C 20.5836,54.4573 19.9169,54.1239 19.5,53.5C 20.5,53.5 21.5,53.5 22.5,53.5C 22.5,52.5 22.5,51.5 22.5,50.5C 19.8463,48.428 20.1796,46.7613 23.5,45.5 Z"/></g>
<g><path style="opacity:1" fill="#4787b7" d="M 69.5,53.5 C 70.4013,54.2905 71.0679,55.2905 71.5,56.5C 71.5,58.8333 71.5,61.1667 71.5,63.5C 70.5826,63.5064 70.0826,62.5064 70,60.5C 68.9609,64.2229 67.7942,64.2229 66.5,60.5C 67.3799,58.6112 67.3799,56.6112 66.5,54.5C 67.209,53.596 68.209,53.2627 69.5,53.5 Z"/></g>
<g><path style="opacity:1" fill="#1a1e61" d="M 28.5,54.5 C 27.7659,55.7079 27.4326,57.0413 27.5,58.5C 26.8365,60.0419 26.1698,61.7086 25.5,63.5C 23.9984,64.0831 22.6651,64.9164 21.5,66C 15.5015,66.5908 9.50155,67.0908 3.5,67.5C 8.48704,66.6768 11.3204,63.6768 12,58.5C 13.7848,59.3538 14.9515,58.6871 15.5,56.5C 19.9691,56.5421 24.3025,55.8755 28.5,54.5 Z"/></g>
<g><path style="opacity:1" fill="#311c67" d="M 77.5,48.5 C 77.2488,50.1703 76.5822,51.6703 75.5,53C 76.7932,53.49 78.1266,53.6567 79.5,53.5C 79.2155,51.5853 79.5489,49.9187 80.5,48.5C 81.4412,50.4664 82.4412,52.4664 83.5,54.5C 85.1689,55.9729 86.8355,56.3062 88.5,55.5C 88.3433,56.8734 88.51,58.2068 89,59.5C 90.8195,61.1321 91.9862,63.1321 92.5,65.5C 92.7373,66.791 92.404,67.791 91.5,68.5C 91.5,68.1667 91.5,67.8333 91.5,67.5C 88.7131,66.5233 85.7131,66.19 82.5,66.5C 82.5,65.5 82.5,64.5 82.5,63.5C 79.7201,63.1931 77.2201,62.1931 75,60.5C 73.8261,61.5442 72.6594,62.5442 71.5,63.5C 71.5,61.1667 71.5,58.8333 71.5,56.5C 72.3019,55.0484 72.8019,53.3817 73,51.5C 74.6147,50.6138 76.1147,49.6138 77.5,48.5 Z"/></g>
<g><path style="opacity:1" fill="#3c78ac" d="M 46.5,67.5 C 46.1667,67.5 45.8333,67.5 45.5,67.5C 44.8333,67.5 44.5,67.8333 44.5,68.5C 41.8333,68.5 39.1667,68.5 36.5,68.5C 36.5,68.1667 36.5,67.8333 36.5,67.5C 38.8333,67.5 41.1667,67.5 43.5,67.5C 43.5,65.5 43.5,63.5 43.5,61.5C 44.2096,59.2537 44.7096,56.9204 45,54.5C 45.6841,57.38 45.5174,60.2134 44.5,63C 45.0439,64.585 45.7106,66.085 46.5,67.5 Z"/></g>
<g><path style="opacity:1" fill="#801ea0" d="M 49.5,63.5 C 49.4326,64.9587 49.7659,66.2921 50.5,67.5C 49.8333,67.5 49.5,67.8333 49.5,68.5C 48.5084,68.6716 47.8417,68.3382 47.5,67.5C 47.3343,63.1539 47.501,58.8206 48,54.5C 48.1805,57.6946 48.6805,60.6946 49.5,63.5 Z"/></g>
<g><path style="opacity:1" fill="#193a86" d="M 30.5,53.5 C 31.0473,55.7402 31.3806,58.0736 31.5,60.5C 35.4454,61.4909 39.4454,61.8242 43.5,61.5C 43.5,63.5 43.5,65.5 43.5,67.5C 41.1667,67.5 38.8333,67.5 36.5,67.5C 29.1591,67.3337 21.8258,67.5003 14.5,68C 17.1667,68.3333 19.8333,68.6667 22.5,69C 18.72,69.1254 15.72,69.6254 13.5,70.5C 12.7703,72.045 11.437,72.8784 9.5,73C 10.7932,73.49 12.1266,73.6567 13.5,73.5C 12.0821,75.3079 10.0821,75.9746 7.5,75.5C 5.41203,73.6644 4.0787,71.3311 3.5,68.5C 3.5,68.1667 3.5,67.8333 3.5,67.5C 9.50155,67.0908 15.5015,66.5908 21.5,66C 22.6651,64.9164 23.9984,64.0831 25.5,63.5C 26.1698,61.7086 26.8365,60.0419 27.5,58.5C 27.3398,60.1992 27.5065,61.8659 28,63.5C 28.1489,59.8675 28.9823,56.5341 30.5,53.5 Z"/></g>
<g><path style="opacity:1" fill="#212b7b" d="M 66.5,60.5 C 67.7942,64.2229 68.9609,64.2229 70,60.5C 70.0826,62.5064 70.5826,63.5064 71.5,63.5C 72.6594,62.5442 73.8261,61.5442 75,60.5C 77.2201,62.1931 79.7201,63.1931 82.5,63.5C 82.5,64.5 82.5,65.5 82.5,66.5C 85.7131,66.19 88.7131,66.5233 91.5,67.5C 81.8333,67.5 72.1667,67.5 62.5,67.5C 58.5,67.5 54.5,67.5 50.5,67.5C 49.7659,66.2921 49.4326,64.9587 49.5,63.5C 49.5,62.1667 49.5,60.8333 49.5,59.5C 53.4931,60.1606 57.4931,60.8273 61.5,61.5C 63.3693,61.4932 65.036,61.1599 66.5,60.5 Z"/></g>
<g><path style="opacity:1" fill="#33b6d5" d="M 36.5,67.5 C 36.5,67.8333 36.5,68.1667 36.5,68.5C 33.1016,68.1796 29.7683,68.513 26.5,69.5C 32.3772,71.1568 38.3772,71.8234 44.5,71.5C 44.5,70.5 44.5,69.5 44.5,68.5C 44.5,67.8333 44.8333,67.5 45.5,67.5C 45.5,68.8333 45.5,70.1667 45.5,71.5C 44.7402,72.8933 44.0735,74.3933 43.5,76C 43.5852,77.1074 43.9186,78.1074 44.5,79C 43.9056,79.4643 43.2389,79.631 42.5,79.5C 42.5,78.5 42.5,77.5 42.5,76.5C 34.5272,76.3263 34.5272,75.8263 42.5,75C 35.9712,73.0912 29.3045,72.2578 22.5,72.5C 20.0122,70.6122 17.0122,69.9455 13.5,70.5C 15.72,69.6254 18.72,69.1254 22.5,69C 19.8333,68.6667 17.1667,68.3333 14.5,68C 21.8258,67.5003 29.1591,67.3337 36.5,67.5 Z"/></g>
<g><path style="opacity:1" fill="#740bf7" d="M 62.5,68.5 C 65.8499,68.335 69.1832,68.5017 72.5,69C 70.6183,69.1981 68.9516,69.6981 67.5,70.5C 65.1667,70.5 62.8333,70.5 60.5,70.5C 59.234,69.9101 57.9007,69.4101 56.5,69C 58.4727,68.5045 60.4727,68.3379 62.5,68.5 Z"/></g>
<g><path style="opacity:1" fill="#3ce6eb" d="M 36.5,68.5 C 39.1667,68.5 41.8333,68.5 44.5,68.5C 44.5,69.5 44.5,70.5 44.5,71.5C 38.3772,71.8234 32.3772,71.1568 26.5,69.5C 29.7683,68.513 33.1016,68.1796 36.5,68.5 Z"/></g>
<g><path style="opacity:1" fill="#9723cf" d="M 62.5,68.5 C 62.5,68.1667 62.5,67.8333 62.5,67.5C 72.1667,67.5 81.8333,67.5 91.5,67.5C 91.5,67.8333 91.5,68.1667 91.5,68.5C 89.712,68.2148 88.0453,68.5481 86.5,69.5C 87.376,70.2508 88.376,70.7508 89.5,71C 85.8626,71.7174 82.196,72.2174 78.5,72.5C 76.2147,72.3241 74.2147,71.6574 72.5,70.5C 70.8333,70.5 69.1667,70.5 67.5,70.5C 68.9516,69.6981 70.6183,69.1981 72.5,69C 69.1832,68.5017 65.8499,68.335 62.5,68.5 Z"/></g>
<g><path style="opacity:1" fill="#6a49df" d="M 50.5,67.5 C 54.5,67.5 58.5,67.5 62.5,67.5C 62.5,67.8333 62.5,68.1667 62.5,68.5C 60.4727,68.3379 58.4727,68.5045 56.5,69C 57.9007,69.4101 59.234,69.9101 60.5,70.5C 58.3647,72.369 55.6981,73.0356 52.5,72.5C 51.2719,71.6935 50.2719,70.6935 49.5,69.5C 49.5,69.1667 49.5,68.8333 49.5,68.5C 49.5,67.8333 49.8333,67.5 50.5,67.5 Z"/></g>
<g><path style="opacity:1" fill="#ab6cec" d="M 60.5,70.5 C 62.8333,70.5 65.1667,70.5 67.5,70.5C 69.1667,70.5 70.8333,70.5 72.5,70.5C 71.4107,72.1171 69.744,72.9504 67.5,73C 70.1667,73.3333 72.8333,73.6667 75.5,74C 72.6353,74.1829 69.9686,74.6829 67.5,75.5C 65.5648,74.8505 63.5648,74.5172 61.5,74.5C 58.5,73.8333 55.5,73.1667 52.5,72.5C 55.6981,73.0356 58.3647,72.369 60.5,70.5 Z"/></g>
<g><path style="opacity:1" fill="#2b87c2" d="M 13.5,70.5 C 17.0122,69.9455 20.0122,70.6122 22.5,72.5C 20.8008,72.3398 19.1341,72.5065 17.5,73C 20.3412,74.0624 23.0079,75.3958 25.5,77C 24.2068,77.49 22.8734,77.6567 21.5,77.5C 18.2875,76.068 15.6209,74.7347 13.5,73.5C 12.1266,73.6567 10.7932,73.49 9.5,73C 11.437,72.8784 12.7703,72.045 13.5,70.5 Z"/></g>
<g><path style="opacity:1" fill="#7a27a9" d="M 91.5,68.5 C 89.6625,73.6654 86.6625,77.9987 82.5,81.5C 75.9827,80.3798 75.9827,79.5464 82.5,79C 81.3279,78.5814 80.3279,77.9147 79.5,77C 75.4155,76.7668 71.4155,76.2668 67.5,75.5C 69.9686,74.6829 72.6353,74.1829 75.5,74C 72.8333,73.6667 70.1667,73.3333 67.5,73C 69.744,72.9504 71.4107,72.1171 72.5,70.5C 74.2147,71.6574 76.2147,72.3241 78.5,72.5C 82.196,72.2174 85.8626,71.7174 89.5,71C 88.376,70.7508 87.376,70.2508 86.5,69.5C 88.0453,68.5481 89.712,68.2148 91.5,68.5 Z"/></g>
<g><path style="opacity:1" fill="#7c2eba" d="M 49.5,69.5 C 50.2719,70.6935 51.2719,71.6935 52.5,72.5C 55.5,73.1667 58.5,73.8333 61.5,74.5C 59.4727,74.3379 57.4727,74.5045 55.5,75C 58.1667,75.3333 60.8333,75.6667 63.5,76C 64.9423,76.3768 65.9423,77.2101 66.5,78.5C 65.8333,78.5 65.1667,78.5 64.5,78.5C 59.8643,78.6248 55.531,77.7915 51.5,76C 49.771,74.2111 49.1043,72.0444 49.5,69.5 Z"/></g>
<g><path style="opacity:1" fill="#2c6fbc" d="M 13.5,73.5 C 15.6209,74.7347 18.2875,76.068 21.5,77.5C 21.5,77.8333 21.5,78.1667 21.5,78.5C 17.1405,77.9933 12.8072,77.3266 8.5,76.5C 7.83333,76.5 7.5,76.1667 7.5,75.5C 10.0821,75.9746 12.0821,75.3079 13.5,73.5 Z"/></g>
<g><path style="opacity:1" fill="#4dcfdc" d="M 22.5,72.5 C 29.3045,72.2578 35.9712,73.0912 42.5,75C 34.5272,75.8263 34.5272,76.3263 42.5,76.5C 42.5,77.5 42.5,78.5 42.5,79.5C 41.791,80.404 40.791,80.7373 39.5,80.5C 37.712,80.7852 36.0453,80.4519 34.5,79.5C 34.7093,78.914 35.0426,78.414 35.5,78C 33.5,77.6667 31.5,77.3333 29.5,77C 27.6765,74.4953 25.3431,72.9953 22.5,72.5 Z"/></g>
<g><path style="opacity:1" fill="#4d7ea4" d="M 45.5,71.5 C 47.3435,73.2789 48.0102,75.6122 47.5,78.5C 45.3078,80.5896 42.6412,81.5896 39.5,81.5C 39.5,81.1667 39.5,80.8333 39.5,80.5C 40.791,80.7373 41.791,80.404 42.5,79.5C 43.2389,79.631 43.9056,79.4643 44.5,79C 43.9186,78.1074 43.5852,77.1074 43.5,76C 44.0735,74.3933 44.7402,72.8933 45.5,71.5 Z"/></g>
<g><path style="opacity:1" fill="#224096" d="M 8.5,76.5 C 12.8072,77.3266 17.1405,77.9933 21.5,78.5C 18.2746,79.2368 14.9412,79.9035 11.5,80.5C 10.0256,79.5637 9.02561,78.2303 8.5,76.5 Z"/></g>
<g><path style="opacity:1" fill="#7e52b2" d="M 61.5,74.5 C 63.5648,74.5172 65.5648,74.8505 67.5,75.5C 71.4155,76.2668 75.4155,76.7668 79.5,77C 80.3279,77.9147 81.3279,78.5814 82.5,79C 75.9827,79.5464 75.9827,80.3798 82.5,81.5C 81.4154,83.5869 79.7488,84.9202 77.5,85.5C 76.2935,84.1196 76.6269,82.9529 78.5,82C 75.1405,78.9026 71.1405,77.736 66.5,78.5C 65.9423,77.2101 64.9423,76.3768 63.5,76C 60.8333,75.6667 58.1667,75.3333 55.5,75C 57.4727,74.5045 59.4727,74.3379 61.5,74.5 Z"/></g>
<g><path style="opacity:1" fill="#327db7" d="M 21.5,78.5 C 25.0487,78.4392 28.3821,79.2725 31.5,81C 28.3054,81.1805 25.3054,81.6805 22.5,82.5C 18.1074,82.5432 17.7741,82.0432 21.5,81C 18.4929,80.6987 15.4929,80.8654 12.5,81.5C 11.8333,81.5 11.5,81.1667 11.5,80.5C 14.9412,79.9035 18.2746,79.2368 21.5,78.5 Z"/></g>
<g><path style="opacity:1" fill="#5daec9" d="M 22.5,72.5 C 25.3431,72.9953 27.6765,74.4953 29.5,77C 31.5,77.3333 33.5,77.6667 35.5,78C 35.0426,78.414 34.7093,78.914 34.5,79.5C 36.0453,80.4519 37.712,80.7852 39.5,80.5C 39.5,80.8333 39.5,81.1667 39.5,81.5C 38.9002,82.8999 37.9002,83.8999 36.5,84.5C 35.5,84.5 34.5,84.5 33.5,84.5C 31.8333,84.5 30.1667,84.5 28.5,84.5C 30.631,83.6862 32.9644,83.1862 35.5,83C 31.1794,82.501 26.8461,82.3343 22.5,82.5C 25.3054,81.6805 28.3054,81.1805 31.5,81C 28.3821,79.2725 25.0487,78.4392 21.5,78.5C 21.5,78.1667 21.5,77.8333 21.5,77.5C 22.8734,77.6567 24.2068,77.49 25.5,77C 23.0079,75.3958 20.3412,74.0624 17.5,73C 19.1341,72.5065 20.8008,72.3398 22.5,72.5 Z"/></g>
<g><path style="opacity:1" fill="#2f2f5c" d="M 47.5,78.5 C 46.8333,80.1667 46.1667,81.8333 45.5,83.5C 44.0425,85.0108 42.2092,86.0108 40,86.5C 39.2904,85.0267 38.1238,84.3601 36.5,84.5C 37.9002,83.8999 38.9002,82.8999 39.5,81.5C 42.6412,81.5896 45.3078,80.5896 47.5,78.5 Z"/></g>
<g><path style="opacity:1" fill="#5f1f71" d="M 64.5,78.5 C 65.1667,78.5 65.8333,78.5 66.5,78.5C 66.5,79.8333 66.5,81.1667 66.5,82.5C 65.9033,82.7352 65.5699,83.2352 65.5,84C 65.9783,85.3026 66.645,86.4693 67.5,87.5C 66.0222,87.762 64.6888,87.4287 63.5,86.5C 64.4847,84.9017 64.6514,83.235 64,81.5C 62.6003,82.748 61.1003,83.748 59.5,84.5C 57.5856,83.8153 55.5856,83.3153 53.5,83C 58.0659,83.3527 61.7326,81.8527 64.5,78.5 Z"/></g>
<g><path style="opacity:0.008" fill="#224ea3" d="M 22.5,82.5 C 20.1667,83.1667 17.8333,83.8333 15.5,84.5C 14.1667,83.8333 13.1667,82.8333 12.5,81.5C 15.4929,80.8654 18.4929,80.6987 21.5,81C 17.7741,82.0432 18.1074,82.5432 22.5,82.5 Z"/></g>
<g><path style="opacity:1" fill="#3077af" d="M 22.5,82.5 C 26.8461,82.3343 31.1794,82.501 35.5,83C 32.9644,83.1862 30.631,83.6862 28.5,84.5C 26.1667,85.8333 23.8333,87.1667 21.5,88.5C 20.5084,88.6716 19.8417,88.3382 19.5,87.5C 21.3594,86.4058 23.3594,85.5725 25.5,85C 22.3035,84.1955 19.3035,84.3622 16.5,85.5C 15.8333,85.5 15.5,85.1667 15.5,84.5C 17.8333,83.8333 20.1667,83.1667 22.5,82.5 Z"/></g>
<g><path style="opacity:1" fill="#2e1150" d="M 45.5,67.5 C 45.8333,67.5 46.1667,67.5 46.5,67.5C 46.8333,67.5 47.1667,67.5 47.5,67.5C 47.8417,68.3382 48.5084,68.6716 49.5,68.5C 49.5,68.8333 49.5,69.1667 49.5,69.5C 49.1043,72.0444 49.771,74.2111 51.5,76C 55.531,77.7915 59.8643,78.6248 64.5,78.5C 61.7326,81.8527 58.0659,83.3527 53.5,83C 55.5856,83.3153 57.5856,83.8153 59.5,84.5C 59.0831,85.1239 58.4164,85.4573 57.5,85.5C 53.5271,84.6156 49.5271,83.949 45.5,83.5C 46.1667,81.8333 46.8333,80.1667 47.5,78.5C 48.0102,75.6122 47.3435,73.2789 45.5,71.5C 45.5,70.1667 45.5,68.8333 45.5,67.5 Z"/></g>
<g><path style="opacity:1" fill="#1f458f" d="M 16.5,85.5 C 19.3035,84.3622 22.3035,84.1955 25.5,85C 23.3594,85.5725 21.3594,86.4058 19.5,87.5C 18.5,86.8333 17.5,86.1667 16.5,85.5 Z"/></g>
<g><path style="opacity:1" fill="#c0a8d3" d="M 66.5,82.5 C 67.075,84.4113 68.075,86.078 69.5,87.5C 68.8333,87.5 68.1667,87.5 67.5,87.5C 66.645,86.4693 65.9783,85.3026 65.5,84C 65.5699,83.2352 65.9033,82.7352 66.5,82.5 Z"/></g>
<g><path style="opacity:0.992" fill="#7868b9" d="M 66.5,78.5 C 71.1405,77.736 75.1405,78.9026 78.5,82C 76.6269,82.9529 76.2935,84.1196 77.5,85.5C 76.8333,86.8333 75.8333,87.8333 74.5,88.5C 73.0813,87.5489 71.4147,87.2155 69.5,87.5C 68.075,86.078 67.075,84.4113 66.5,82.5C 66.5,81.1667 66.5,79.8333 66.5,78.5 Z"/></g>
<g><path style="opacity:1" fill="#1f0c41" d="M 67.5,87.5 C 68.1667,87.5 68.8333,87.5 69.5,87.5C 71.4147,87.2155 73.0813,87.5489 74.5,88.5C 73.5,89.1667 72.5,89.8333 71.5,90.5C 71.1344,89.3054 70.301,88.6387 69,88.5C 64.539,89.2471 60.039,89.7471 55.5,90C 60.0195,90.1753 64.3528,90.6753 68.5,91.5C 66.351,92.7362 64.0177,93.7362 61.5,94.5C 61.3893,93.8826 61.056,93.3826 60.5,93C 53.105,92.063 45.7717,90.8964 38.5,89.5C 33.1667,89.1667 33.1667,88.8333 38.5,88.5C 38.5,87.5 38.5,86.5 38.5,85.5C 36.5853,85.7845 34.9187,85.4511 33.5,84.5C 34.5,84.5 35.5,84.5 36.5,84.5C 38.1238,84.3601 39.2904,85.0267 40,86.5C 42.2092,86.0108 44.0425,85.0108 45.5,83.5C 49.5271,83.949 53.5271,84.6156 57.5,85.5C 58.4164,85.4573 59.0831,85.1239 59.5,84.5C 61.1003,83.748 62.6003,82.748 64,81.5C 64.6514,83.235 64.4847,84.9017 63.5,86.5C 64.6888,87.4287 66.0222,87.762 67.5,87.5 Z"/></g>
<g><path style="opacity:1" fill="#1c1c5d" d="M 28.5,84.5 C 30.1667,84.5 31.8333,84.5 33.5,84.5C 34.9187,85.4511 36.5853,85.7845 38.5,85.5C 38.5,86.5 38.5,87.5 38.5,88.5C 33.1667,88.8333 33.1667,89.1667 38.5,89.5C 40.5625,90.7763 42.8958,91.6097 45.5,92C 43.0268,92.2195 41.3602,93.3862 40.5,95.5C 38.8333,95.5 37.1667,95.5 35.5,95.5C 34.1667,94.8333 32.8333,94.1667 31.5,93.5C 32.2891,93.2172 32.9558,92.7172 33.5,92C 31.1539,88.9987 28.1539,87.9987 24.5,89C 23.944,89.3826 23.6107,89.8826 23.5,90.5C 22.5,90.1667 21.8333,89.5 21.5,88.5C 23.8333,87.1667 26.1667,85.8333 28.5,84.5 Z"/></g>
<g><path style="opacity:1" fill="#1d527d" d="M 31.5,93.5 C 28.6733,92.8916 26.0067,91.8916 23.5,90.5C 23.6107,89.8826 23.944,89.3826 24.5,89C 28.1539,87.9987 31.1539,88.9987 33.5,92C 32.9558,92.7172 32.2891,93.2172 31.5,93.5 Z"/></g>
<g><path style="opacity:0.984" fill="#700d80" d="M 71.5,90.5 C 70.609,91.1098 69.609,91.4431 68.5,91.5C 64.3528,90.6753 60.0195,90.1753 55.5,90C 60.039,89.7471 64.539,89.2471 69,88.5C 70.301,88.6387 71.1344,89.3054 71.5,90.5 Z"/></g>
<g><path style="opacity:1" fill="#361275" d="M 38.5,89.5 C 45.7717,90.8964 53.105,92.063 60.5,93C 61.056,93.3826 61.3893,93.8826 61.5,94.5C 60.5084,94.3284 59.8417,94.6618 59.5,95.5C 58.5,95.5 57.5,95.5 56.5,95.5C 51.5326,91.6015 46.5326,91.6015 41.5,95.5C 41.1667,95.5 40.8333,95.5 40.5,95.5C 41.3602,93.3862 43.0268,92.2195 45.5,92C 42.8958,91.6097 40.5625,90.7763 38.5,89.5 Z"/></g>
<g><path style="opacity:1" fill="#1d0d4b" d="M 56.5,95.5 C 51.5,95.5 46.5,95.5 41.5,95.5C 46.5326,91.6015 51.5326,91.6015 56.5,95.5 Z"/></g>
</svg>
