<?xml version="1.0" encoding="UTF-8"?>
<!DOCTYPE svg PUBLIC "-//W3C//DTD SVG 1.1//EN" "http://www.w3.org/Graphics/SVG/1.1/DTD/svg11.dtd">
<svg xmlns="http://www.w3.org/2000/svg" version="1.1" width="55px" height="55px" style="shape-rendering:geometricPrecision; text-rendering:geometricPrecision; image-rendering:optimizeQuality; fill-rule:evenodd; clip-rule:evenodd" xmlns:xlink="http://www.w3.org/1999/xlink">
<g><path style="opacity:0.843" fill="#efc419" d="M 43.5,-0.5 C 46.1667,-0.5 48.8333,-0.5 51.5,-0.5C 52.5,0.5 53.5,1.5 54.5,2.5C 54.5,5.16667 54.5,7.83333 54.5,10.5C 47.7183,15.4461 43.0517,13.9461 40.5,6C 40.8402,3.48869 41.8402,1.32202 43.5,-0.5 Z"/></g>
<g><path style="opacity:0.74" fill="#47b66a" d="M 19.5,20.5 C 17.2188,20.0773 15.5521,20.744 14.5,22.5C 10.8516,25.1419 7.18494,27.8086 3.5,30.5C 2.29628,25.908 3.62961,22.2413 7.5,19.5C 9.92397,19.8076 12.2573,19.4742 14.5,18.5C 14.1373,17.8165 13.8039,17.1499 13.5,16.5C 13.29,9.54459 16.6233,6.04459 23.5,6C 22.1667,8.33333 20.8333,10.6667 19.5,13C 21.0349,13.4962 22.5349,13.3295 24,12.5C 27.0171,12.9953 29.5171,14.3286 31.5,16.5C 27.3921,17.8518 23.3921,19.1851 19.5,20.5 Z"/></g>
<g><path style="opacity:0.787" fill="#4b8056" d="M 13.5,16.5 C 13.8039,17.1499 14.1373,17.8165 14.5,18.5C 12.2573,19.4742 9.92397,19.8076 7.5,19.5C 4.76275,19.5987 2.09609,19.2653 -0.5,18.5C -0.5,17.8333 -0.5,17.1667 -0.5,16.5C 4.20561,12.5168 8.87228,12.5168 13.5,16.5 Z"/></g>
<g><path style="opacity:0.756" fill="#4c8056" d="M 42.5,24.5 C 42.2172,25.2891 41.7172,25.9558 41,26.5C 39.9509,24.3825 38.4509,22.7158 36.5,21.5C 36.1231,19.742 35.4565,18.0754 34.5,16.5C 40.6212,15.2983 43.2879,17.965 42.5,24.5 Z"/></g>
<g><path style="opacity:0.741" fill="#3db367" d="M 36.5,21.5 C 38.4509,22.7158 39.9509,24.3825 41,26.5C 41.7172,25.9558 42.2172,25.2891 42.5,24.5C 46.5,21.8333 50.5,21.8333 54.5,24.5C 54.5,25.1667 54.5,25.8333 54.5,26.5C 52.4357,26.687 50.4357,27.187 48.5,28C 51.4629,30.2706 52.1295,33.1039 50.5,36.5C 47.6508,33.9163 44.6508,31.583 41.5,29.5C 40.8166,27.8235 39.4832,27.1568 37.5,27.5C 34.0821,26.8118 30.7488,25.8118 27.5,24.5C 29.8781,21.924 32.8781,20.924 36.5,21.5 Z"/></g>
<g><path style="opacity:0.839" fill="#c88050" d="M 19.5,20.5 C 23.5272,25.2175 26.5272,30.5508 28.5,36.5C 25.7131,37.4767 22.7131,37.81 19.5,37.5C 19.2091,31.9871 17.5424,26.9871 14.5,22.5C 15.5521,20.744 17.2188,20.0773 19.5,20.5 Z"/></g>
<g><path style="opacity:0.762" fill="#c37e4f" d="M 37.5,27.5 C 39.4832,27.1568 40.8166,27.8235 41.5,29.5C 39.9049,32.2854 38.9049,35.2854 38.5,38.5C 36.139,38.3259 33.8056,37.9926 31.5,37.5C 33.1023,33.9046 35.1023,30.5712 37.5,27.5 Z"/></g>
<g><path style="opacity:0.936" fill="#edc228" d="M 28.5,36.5 C 29.391,37.1098 30.391,37.4431 31.5,37.5C 33.8056,37.9926 36.139,38.3259 38.5,38.5C 42.5712,39.8615 45.9045,42.1948 48.5,45.5C 45.3976,49.1421 41.8976,49.4754 38,46.5C 36.072,46.9335 34.2387,47.6002 32.5,48.5C 30.7613,47.6002 28.928,46.9335 27,46.5C 25.072,46.9335 23.2387,47.6002 21.5,48.5C 19.7613,47.6002 17.928,46.9335 16,46.5C 12.1024,49.4754 8.6024,49.1421 5.5,45.5C 9.21228,41.3063 13.8789,38.6396 19.5,37.5C 22.7131,37.81 25.7131,37.4767 28.5,36.5 Z"/></g>
<g><path style="opacity:0.976" fill="#31a8cb" d="M 5.5,45.5 C 8.6024,49.1421 12.1024,49.4754 16,46.5C 17.928,46.9335 19.7613,47.6002 21.5,48.5C 23.2387,47.6002 25.072,46.9335 27,46.5C 28.928,46.9335 30.7613,47.6002 32.5,48.5C 34.2387,47.6002 36.072,46.9335 38,46.5C 41.8976,49.4754 45.3976,49.1421 48.5,45.5C 50.9468,45.615 52.9468,46.615 54.5,48.5C 54.5,50.5 54.5,52.5 54.5,54.5C 36.1667,54.5 17.8333,54.5 -0.5,54.5C -0.5,52.5 -0.5,50.5 -0.5,48.5C 1.05322,46.615 3.05322,45.615 5.5,45.5 Z"/></g>
</svg>
